<svg id="Photogallery" xmlns="http://www.w3.org/2000/svg" width="14" height="14" viewBox="0 0 14 14"><defs><style>.cls-1{fill:#becbd6;}</style></defs><title>photogallery</title><path class="cls-1" d="M13.13,14H0.88A0.83,0.83,0,0,1,0,13.13V0.88A0.83,0.83,0,0,1,.88,0H13.13A0.83,0.83,0,0,1,14,.88V13.13A0.83,0.83,0,0,1,13.13,14ZM1.75,12.25h10.5V1.75H1.75v10.5Z"/><path class="cls-1" d="M5.25,3.5a0.83,0.83,0,0,1,.88.88,0.83,0.83,0,0,1-.87.88,0.83,0.83,0,0,1-.87-0.87A0.83,0.83,0,0,1,5.25,3.5Z"/><polygon class="cls-1" points="2.63 10.5 4.38 7 6.13 8.75 8.75 5.25 11.38 10.5 2.63 10.5"/></svg>