<svg id="satellite-ais" data-name="Capa 1" xmlns="http://www.w3.org/2000/svg" width="16" height="16" viewBox="0 0 16 16"><defs><style>.cls-1{fill:#a6afba;}</style></defs><title>satellite-ais</title><path class="cls-1" d="M2.52,2.52h0a3,3,0,0,0-.33,3.79L6.3,2.19A3,3,0,0,0,2.52,2.52Z"/><path class="cls-1" d="M10.31,4.89l-.63.63L6.82,2.64,2.64,6.83,5.51,9.7l-.62.62.7.7.62-.62.37.37a.46.46,0,0,0,.66,0L8.64,9.36l.62.63a3.18,3.18,0,0,0-.39,3,.31.31,0,0,0,.51.11l1.54-1.55.37.37a.43.43,0,1,0,.61-.61l-.37-.37L13.08,9.4A.31.31,0,0,0,13,8.89a3.17,3.17,0,0,0-3,.39l-.62-.63,1.41-1.41a.47.47,0,0,0,0-.66l-.37-.37L11,5.59Z"/><path class="cls-1" d="M.14,13.93l1.93,1.94a.46.46,0,0,0,.66,0L5.89,12.7a.47.47,0,0,0,0-.66l-.65-.65-.7-.7L4,10.1a.46.46,0,0,0-.66,0L.14,13.27A.47.47,0,0,0,.14,13.93Z"/><path class="cls-1" d="M15.86,2.07,13.93.14a.46.46,0,0,0-.66,0L10.11,3.3a.47.47,0,0,0,0,.66l.56.56.7.7L12,5.9a.46.46,0,0,0,.66,0l3.16-3.17A.47.47,0,0,0,15.86,2.07Z"/><path class="cls-1" d="M11.54,12.56v.77a1.76,1.76,0,0,0,1.76-1.76h-.77A1,1,0,0,1,11.54,12.56Z"/><path class="cls-1" d="M11.48,14.63A3.13,3.13,0,0,0,14.6,11.5h-.77a2.36,2.36,0,0,1-2.36,2.36Z"/></svg>