<svg id="sailing-boat" data-name="sailing-boat" xmlns="http://www.w3.org/2000/svg" width="140" height="160" viewBox="0 0 140 160"><defs><style>.cls-1{fill:#d7dee2;}.cls-2{fill:#e3e6ed;}.cls-3{fill:#edeff4;}</style></defs><title>sailing-boat</title><path class="cls-1" d="M70,27.59A52.41,52.41,0,1,0,122.68,80,52.54,52.54,0,0,0,70,27.59Zm0,99.31A46.9,46.9,0,1,1,117.13,80,47,47,0,0,1,70,126.9Z"/><path class="cls-2" d="M30.76,108.92l-12,6.9a2.78,2.78,0,0,1-3.79-1L4.16,121a2.78,2.78,0,0,1-3.79-1,2.75,2.75,0,0,1,1-3.77L12.19,110a2.75,2.75,0,0,1,1-3.77l12-6.9a2.78,2.78,0,0,1,3.79,1L47,90a2.75,2.75,0,0,1,1-3.77l7.2-4.14,5.54,9.56-7.2,4.14a2.78,2.78,0,0,1-3.79-1l-18,10.34A2.75,2.75,0,0,1,30.76,108.92Z"/><path class="cls-2" d="M109.24,51.08l12-6.9a2.78,2.78,0,0,1,3.79,1L135.84,39a2.78,2.78,0,0,1,3.79,1,2.75,2.75,0,0,1-1,3.77L127.81,50a2.75,2.75,0,0,1-1,3.77l-12,6.9a2.78,2.78,0,0,1-3.79-1L93,70a2.75,2.75,0,0,1-1,3.77l-7.2,4.14-5.54-9.56,7.2-4.14a2.78,2.78,0,0,1,3.79,1l18-10.34A2.75,2.75,0,0,1,109.24,51.08Z"/><path class="cls-2" d="M75.55,31.72V17.93a2.77,2.77,0,0,0-2.77-2.76V2.76a2.77,2.77,0,0,0-5.54,0V15.17a2.77,2.77,0,0,0-2.77,2.76V31.72a2.77,2.77,0,0,0,2.77,2.76V55.17a2.77,2.77,0,0,0-2.77,2.76v8.28H75.55V57.93a2.77,2.77,0,0,0-2.77-2.76V34.48A2.77,2.77,0,0,0,75.55,31.72Z"/><path class="cls-2" d="M64.46,128.28v13.79a2.77,2.77,0,0,0,2.77,2.76v12.41a2.77,2.77,0,0,0,5.54,0V144.83a2.77,2.77,0,0,0,2.77-2.76V128.28a2.77,2.77,0,0,0-2.77-2.76V104.83a2.77,2.77,0,0,0,2.77-2.76V93.79H64.46v8.28a2.77,2.77,0,0,0,2.77,2.76v20.69A2.77,2.77,0,0,0,64.46,128.28Z"/><path class="cls-2" d="M109.24,108.92l12,6.9a2.78,2.78,0,0,0,3.79-1l10.8,6.21a2.78,2.78,0,0,0,3.79-1,2.75,2.75,0,0,0-1-3.77L127.81,110a2.75,2.75,0,0,0-1-3.77l-12-6.9a2.78,2.78,0,0,0-3.79,1L93,90a2.75,2.75,0,0,0-1-3.77l-7.2-4.14-5.54,9.56,7.2,4.14a2.78,2.78,0,0,0,3.79-1l18,10.34A2.75,2.75,0,0,0,109.24,108.92Z"/><path class="cls-2" d="M30.76,51.08l-12-6.9a2.78,2.78,0,0,0-3.79,1L4.16,39A2.78,2.78,0,0,0,.37,40a2.75,2.75,0,0,0,1,3.77L12.19,50a2.75,2.75,0,0,0,1,3.77l12,6.9a2.78,2.78,0,0,0,3.79-1L47,70a2.75,2.75,0,0,0,1,3.77l7.2,4.14,5.54-9.56-7.2-4.14a2.78,2.78,0,0,0-3.79,1l-18-10.34A2.75,2.75,0,0,0,30.76,51.08Z"/><path class="cls-2" d="M70,140.69A60.69,60.69,0,1,1,131,80,60.91,60.91,0,0,1,70,140.69Zm0-113.1A52.41,52.41,0,1,0,122.68,80,52.6,52.6,0,0,0,70,27.59Z"/><path class="cls-3" d="M70,96.55A16.55,16.55,0,1,1,86.64,80,16.61,16.61,0,0,1,70,96.55Zm0-22.07A5.52,5.52,0,1,0,75.55,80,5.54,5.54,0,0,0,70,74.48Z"/><path class="cls-2" d="M70,69A11,11,0,1,0,81.09,80,11.08,11.08,0,0,0,70,69Zm0,16.55A5.52,5.52,0,1,1,75.55,80,5.54,5.54,0,0,1,70,85.52Z"/></svg>