<svg id="waterside-radar" data-name="Layer 1" xmlns="http://www.w3.org/2000/svg" width="16" height="16" viewBox="0 0 16 16"><defs><style>.cls-1{fill:#a6afba;}</style></defs><title>waterside-radar</title><path class="cls-1" d="M13.2,6.7H11.8A2.05,2.05,0,0,0,9.7,4.6V3.3A3.46,3.46,0,0,1,13.2,6.7Z"/><path class="cls-1" d="M15.9,6.7H14.5A4.74,4.74,0,0,0,9.7,1.9V.5A6.17,6.17,0,0,1,15.9,6.7Z"/><path class="cls-1" d="M6.3,3.3V4.7A2.05,2.05,0,0,0,4.2,6.8H2.8A3.48,3.48,0,0,1,6.3,3.3Z"/><path class="cls-1" d="M6.3.5V1.9A4.74,4.74,0,0,0,1.5,6.7H.1A6.17,6.17,0,0,1,6.3.5Z"/><polyline class="cls-1" points="8 6.5 11.4 15.6 4.6 15.6"/></svg>