<?xml version="1.0" encoding="utf-8"?>
<!-- Generator: Adobe Illustrator 21.1.0, SVG Export Plug-In . SVG Version: 6.00 Build 0)  -->
<svg version="1.1" id="Layer_1" xmlns="http://www.w3.org/2000/svg" xmlns:xlink="http://www.w3.org/1999/xlink" x="0px" y="0px"
	 width="16px" height="16px" viewBox="0 0 16 16" style="enable-background:new 0 0 16 16;" xml:space="preserve">
<style type="text/css">
	.st0{fill:#444444;}
</style>
<g>
	<path class="st0" d="M13.7,2.3c-0.3-0.3-0.9-0.3-1.2,0L8,6.8L3.5,2.3c-0.3-0.3-0.9-0.3-1.2,0s-0.3,0.9,0,1.2L6.8,8l-4.5,4.5
		c-0.3,0.3-0.3,0.9,0,1.2C2.4,13.9,2.6,14,2.9,14s0.4-0.1,0.6-0.3L8,9.2l4.5,4.5c0.2,0.2,0.4,0.3,0.6,0.3c0.2,0,0.4-0.1,0.6-0.3
		c0.3-0.3,0.3-0.9,0-1.2L9.2,8l4.5-4.5C14.1,3.1,14.1,2.6,13.7,2.3z"/>
</g>
</svg>
