<?xml version="1.0" encoding="utf-8"?>
<!-- Generator: Adobe Illustrator 21.1.0, SVG Export Plug-In . SVG Version: 6.00 Build 0)  -->
<svg version="1.1" id="Layer_1" xmlns="http://www.w3.org/2000/svg" xmlns:xlink="http://www.w3.org/1999/xlink" x="0px" y="0px"
	 width="12px" height="12px" viewBox="0 0 12 12" style="enable-background:new 0 0 12 12;" xml:space="preserve">
<style type="text/css">
	.st0{fill:#FFA102;}
	.st1{fill:#076E8D;}
</style>
<g>
	<rect x="0" class="st0" width="1.5" height="4.5"/>
	
		<rect x="1.5" y="-1.5" transform="matrix(-1.836970e-16 1 -1 -1.836970e-16 2.9945 -1.4945)" class="st0" width="1.5" height="4.5"/>
	
		<rect x="9" y="-1.5" transform="matrix(-1.836970e-16 1 -1 -1.836970e-16 10.4951 -8.9951)" class="st0" width="1.5" height="4.5"/>
	<rect x="10.5" transform="matrix(-1 -1.224647e-16 1.224647e-16 -1 22.4863 4.5)" class="st0" width="1.5" height="4.5"/>
	<rect x="10.5" y="7.5" transform="matrix(-1 -1.224647e-16 1.224647e-16 -1 22.4967 19.5)" class="st0" width="1.5" height="4.5"/>
	<rect x="9" y="9" transform="matrix(6.123234e-17 -1 1 6.123234e-17 -1.4997 21.0003)" class="st0" width="1.5" height="4.5"/>
	<rect x="1.5" y="9" transform="matrix(6.123234e-17 -1 1 6.123234e-17 -9.0003 13.4997)" class="st0" width="1.5" height="4.5"/>
	<rect x="0" y="7.5" class="st0" width="1.5" height="4.5"/>
	<ellipse class="st1" cx="6" cy="6" rx="2.2" ry="2.3"/>
</g>
</svg>
