<svg id="Layer_1" data-name="Layer 1" xmlns="http://www.w3.org/2000/svg" width="115" height="30" viewBox="0 0 115 30"><defs><style>.cls-1{fill:#1d9bc2;}.cls-2{fill:#ff683e;}</style></defs><title>geomixer-logo-18-03</title><path class="cls-1" d="M17.24,15.55a2,2,0,0,1,0,.48,1.83,1.83,0,0,1-.06.24l0,.06,0,.06a1.07,1.07,0,0,1,0,.11l-.06.11-.07.11a1.93,1.93,0,0,1-.15.2,2,2,0,0,1-1.36.68h-.53l-.13,0-.13,0-.06,0-.06,0-.13-.05-.12-.06-.06,0-.06,0L14,17.2l-.11-.09-.05,0,0,0-.1-.1-.09-.11,0-.05,0-.06-.08-.12-.07-.12,0-.06,0-.06-.05-.13a2.23,2.23,0,0,1-.12-.55v-.27s0-.09,0-.13,0-.09,0-.13v-.26l0-.13,0-.13a4,4,0,0,1,.33-1A4.1,4.1,0,0,1,14.91,12a4.19,4.19,0,0,1,1-.5,4.26,4.26,0,0,1,3.23.14,4.4,4.4,0,0,1,1.72,1.42,4.34,4.34,0,0,1,.54,1,4.35,4.35,0,0,1,.26,1.12c0,.1,0,.19,0,.29s0,.09,0,.14v.13c0,.09,0,.18,0,.27v.27a6.14,6.14,0,0,1-.19,1.07,6.31,6.31,0,0,1-.93,2A6.53,6.53,0,0,1,19,20.93a6.4,6.4,0,0,1-3.11,1.15,6.56,6.56,0,0,1-5.2-1.81,6.7,6.7,0,0,1-2-4.06l0-.29c0-.1,0-.19,0-.29v-.07s0,0,0-.07v-.14c0-.09,0-.18,0-.27l0-.27s0-.09,0-.14v-.14l0-.27,0-.27a8.43,8.43,0,0,1,.65-2.11,8.55,8.55,0,0,1,.53-1c.1-.16.2-.31.31-.46l.17-.22.17-.22.18-.21.19-.21c.12-.14.26-.26.39-.39a8.54,8.54,0,0,1,3.89-2.1l.14,0,.07,0h.07L15.74,7l.28,0,.28,0a8.85,8.85,0,0,1,2.24,0l.55.1.27.06.27.07.14,0,.13,0,.27.09.26.1.13.05.13.06.26.12.25.13.13.06.12.07.24.14.24.15L22,8.3l.12.08.23.16.22.17.11.09.11.09.21.18.21.19.1.1.1.1.19.2.19.21.18.22.17.22a8.73,8.73,0,0,1,1.11,2l.1.26.09.27,0,.13,0,.14.08.27.06.28,0,.14,0,.14.05.28c0,.09,0,.19,0,.28s0,.37.05.56,0,.09,0,.14v.28s0,.09,0,.14,0,.36,0,.54l0,.27v.14s0,.09,0,.14a10.47,10.47,0,0,1-10.29,9.37,10.6,10.6,0,0,1-2.15-.19,10.37,10.37,0,0,1-4-1.68,10.51,10.51,0,0,1-1.62-1.41,10.36,10.36,0,0,1-2.21-3.64,10.13,10.13,0,0,1-.49-2.08l0-.26v-.26l0-.27c0-.09,0-.18,0-.27v-.27c0-.09,0-.18,0-.26l0-.52a12.43,12.43,0,0,1,.32-2,11.61,11.61,0,0,1,.66-2,11.88,11.88,0,0,1,2.27-3.4A12.05,12.05,0,0,1,9.86,6.21a11.65,11.65,0,0,1,1.73-1.06A11.64,11.64,0,0,1,15.43,4l.5,0,.5,0h1l.25,0h.25l.25,0,.25,0,.49.08.48.11a11.64,11.64,0,0,1,1.87.62c.3.13.6.27.88.43l.43.24L23,5.8a11.25,11.25,0,0,1,2.8,2.65,10.93,10.93,0,0,1,1.69,3.4l.12.46.1.46c.06.31.11.62.14.93,0,.08,0,.15,0,.23v.47s0,.08,0,.12v.35c0,.08,0,.15,0,.23l0,.46h-.19a11,11,0,0,0-.16-1.8A10.14,10.14,0,0,0,27.07,12a10.51,10.51,0,0,0-7.88-6.75l-.44-.08-.45-.06-.22,0-.23,0H16.5l-.45,0-.45.06A10.52,10.52,0,0,0,12.2,6.29a10.49,10.49,0,0,0-4.74,5.24,10.08,10.08,0,0,0-.54,1.72A10.85,10.85,0,0,0,6.68,15v.45c0,.08,0,.15,0,.22v.22c0,.07,0,.15,0,.22l0,.22v.22l0,.22a8.57,8.57,0,0,0,.44,1.73,8.7,8.7,0,0,0,13.34,4,8.61,8.61,0,0,0,1.32-1.21A8.69,8.69,0,0,0,24,16.49s0-.07,0-.11v-.11L24,16c0-.15,0-.3,0-.45s0-.15,0-.22v-.11s0-.07,0-.11,0-.3,0-.44l0-.22,0-.22,0-.11,0-.11,0-.22-.06-.21,0-.11,0-.11-.07-.21L23.56,13a6.91,6.91,0,0,0-.86-1.55l-.14-.18-.14-.17-.15-.17-.15-.16L22,10.67,22,10.59l-.16-.15-.17-.15-.08-.07-.09-.07L21.29,10l-.18-.13L21,9.82l-.09-.06-.19-.12-.19-.11-.1-.06-.1-.05-.2-.1-.2-.09-.1,0-.1,0-.21-.08L19.32,9l-.11,0-.11,0-.21-.06-.22-.05-.44-.09-.11,0H17.8l-.44,0h-.67l-.22,0-.22,0-.22,0-.22,0h-.11l-.11,0a6.9,6.9,0,0,0-5.25,5.47l0,.22,0,.22v.22l0,.22c0,.07,0,.15,0,.22s0,.15,0,.22,0,.15,0,.22l0,.22a5.17,5.17,0,0,0,.47,1.7,5.16,5.16,0,0,0,2.45,2.46,5.18,5.18,0,0,0,1.7.47,5.28,5.28,0,0,0,.89,0,5,5,0,0,0,.88-.14,5.19,5.19,0,0,0,1.62-.71,5.27,5.27,0,0,0,1.28-1.22,5.21,5.21,0,0,0,.8-1.58,5,5,0,0,0,.18-.87V16c0-.07,0-.15,0-.22s0-.15,0-.22,0-.15,0-.22a3.28,3.28,0,0,0-.17-.86,3.42,3.42,0,0,0-2.51-2.24,3.44,3.44,0,0,0-1.74.08,3.42,3.42,0,0,0-2.31,2.47l0,.11,0,.11v.33s0,.07,0,.11v.22a1.7,1.7,0,0,0,.07.42l0,.1,0,.05,0,0,0,.1.06.09,0,0,0,0,.06.09.07.08,0,0,0,0,.08.07.09.06,0,0,0,0,.09.06.1,0,0,0,.05,0,.1,0,.1,0h.11l.11,0h.22a1.65,1.65,0,0,0,.82-.23,1.67,1.67,0,0,0,.34-.26,1.65,1.65,0,0,0,.14-.16l.06-.09.06-.09,0-.1,0,0,0,0A1.61,1.61,0,0,0,17,16a1.76,1.76,0,0,0,.06-.43Z"/><path class="cls-2" d="M17.24,15.55v.18a1.39,1.39,0,0,1,0,.19c0,.06,0,.13,0,.19s0,.13,0,.19a2,2,0,0,1-.35.73,2.12,2.12,0,0,1-.64.56,2.19,2.19,0,0,1-.84.27,2.28,2.28,0,0,1-.92-.08A2.45,2.45,0,0,1,13,16.55a2.6,2.6,0,0,1-.28-1v-.22c0-.07,0-.15,0-.22s0-.29,0-.44a4.5,4.5,0,0,1,.19-.87,4.3,4.3,0,0,1,.36-.83,4.67,4.67,0,0,1,.53-.75,4.59,4.59,0,0,1,1.47-1.13,4.68,4.68,0,0,1,1.83-.48,4.88,4.88,0,0,1,3.58,1.28,5,5,0,0,1,1.5,2.54,5.16,5.16,0,0,1,.13,1c0,.09,0,.16,0,.23s0,.15,0,.23v.23s0,.08,0,.11v.11l0,.23,0,.22,0,.11,0,.11,0,.22-.06.22,0,.11,0,.11-.07.22-.08.21,0,.11,0,.1-.09.21-.1.2-.05.1-.05.1-.11.2-.12.19-.06.1-.06.09-.13.19-.14.18-.07.09-.07.09-.15.17-.16.17-.16.16-.17.16-.35.29a6.81,6.81,0,0,1-.75.52l-.2.11-.2.11L18.1,22a6.7,6.7,0,0,1-.86.3,6.85,6.85,0,0,1-1.8.25H15l-.23,0-.23,0-.23,0-.22,0-.44-.1a6.81,6.81,0,0,1-.86-.3l-.41-.19-.2-.11-.2-.11-.19-.12-.19-.13-.36-.27L11,20.93,11,20.86l-.08-.08-.16-.15-.16-.16-.08-.08-.07-.08-.15-.17c-.09-.12-.19-.23-.27-.35A6.79,6.79,0,0,1,9.5,19a6.58,6.58,0,0,1-.63-1.65,6.75,6.75,0,0,1-.14-.87c0-.15,0-.29,0-.43s0-.14,0-.22v-.44l0-.21V15l0-.2c0-.13,0-.27.08-.4s.06-.26.09-.4.07-.26.11-.39,0-.13.06-.19l.07-.19c0-.06,0-.13.07-.19l.08-.19c.05-.12.11-.25.17-.37s.12-.24.19-.36.13-.23.2-.35.15-.22.22-.33l.06-.08.06-.08.12-.16A7.72,7.72,0,0,1,11.48,10l.31-.24.32-.23.33-.21.34-.19a7,7,0,0,1,1.42-.56,6.53,6.53,0,0,1,2.91-.13v.19a7,7,0,0,0-2.66.54,6.75,6.75,0,0,0-2.24,1.53A6.94,6.94,0,0,0,10.73,13a7.16,7.16,0,0,0-.51,2.65v.17c0,.06,0,.11,0,.17s0,.22,0,.33a5.18,5.18,0,0,0,.14.66,5.24,5.24,0,0,0,.22.63c0,.1.09.21.14.3s.11.2.16.29A5.12,5.12,0,0,0,12.84,20l.15.08.15.08.31.13a5,5,0,0,0,.64.21,5.12,5.12,0,0,0,1.33.15h.33l.33,0,.17,0,.16,0,.32-.08a5,5,0,0,0,.63-.22l.3-.14.15-.08L18,20a5.16,5.16,0,0,0,1.85-1.9l0-.07,0-.07.08-.15.07-.15,0-.08,0-.08.06-.16.05-.16,0-.08,0-.08,0-.16,0-.16,0-.08v-.08l0-.17,0-.17v-.33c0-.06,0-.11,0-.17s0-.11,0-.17a3.39,3.39,0,0,0-4.69-3.07,3.4,3.4,0,0,0-2.08,3.14,1.62,1.62,0,0,0,.12.62,1.65,1.65,0,0,0,.89.89,1.66,1.66,0,0,0,2.17-.89,1.92,1.92,0,0,0,.17-.63Z"/><path class="cls-1" d="M42.42,15.2H44v4.4A6,6,0,0,1,42,20.66,7.28,7.28,0,0,1,39.7,21a6.3,6.3,0,0,1-3.08-.75,5.55,5.55,0,0,1-2.15-2.06,5.67,5.67,0,0,1-.78-3,5.71,5.71,0,0,1,.78-3,5.47,5.47,0,0,1,2.16-2.06,6.44,6.44,0,0,1,3.1-.74,6.54,6.54,0,0,1,2.46.44,5,5,0,0,1,1.88,1.3l-1,1a4.54,4.54,0,0,0-3.27-1.3,4.76,4.76,0,0,0-2.31.56A4.07,4.07,0,0,0,35.88,13a4.55,4.55,0,0,0,0,4.45A4.13,4.13,0,0,0,37.48,19a4.67,4.67,0,0,0,2.3.56,4.78,4.78,0,0,0,2.64-.73Z"/><path class="cls-1" d="M54.5,17.15H47.58a2.68,2.68,0,0,0,1,1.81,3.23,3.23,0,0,0,2.1.68,3.17,3.17,0,0,0,2.46-1l.85,1a3.74,3.74,0,0,1-1.44,1,5.44,5.44,0,0,1-4.33-.2,4,4,0,0,1-1.62-1.55A4.46,4.46,0,0,1,46,16.63a4.53,4.53,0,0,1,.56-2.24,4,4,0,0,1,1.53-1.55,4.36,4.36,0,0,1,2.2-.56,4.27,4.27,0,0,1,2.18.56A3.91,3.91,0,0,1,54,14.4a4.73,4.73,0,0,1,.54,2.29A4.42,4.42,0,0,1,54.5,17.15Zm-6-2.88A2.73,2.73,0,0,0,47.58,16h5.48a2.75,2.75,0,0,0-.88-1.76,2.88,2.88,0,0,0-3.72,0Z"/><path class="cls-1" d="M58,20.44a4.09,4.09,0,0,1-1.59-1.55,4.7,4.7,0,0,1,0-4.49A4,4,0,0,1,58,12.84a5,5,0,0,1,4.57,0,4,4,0,0,1,1.58,1.55,4.7,4.7,0,0,1,0,4.49,4.1,4.1,0,0,1-1.58,1.55,4.91,4.91,0,0,1-4.57,0Zm3.76-1.17a2.67,2.67,0,0,0,1-1.06,3.51,3.51,0,0,0,0-3.14,2.62,2.62,0,0,0-1-1.06,3.12,3.12,0,0,0-2.95,0,2.67,2.67,0,0,0-1,1.06,3.45,3.45,0,0,0,0,3.14,2.72,2.72,0,0,0,1,1.06,3.06,3.06,0,0,0,2.95,0Z"/><path class="cls-1" d="M77.59,20.9l0-8.22L73.5,19.53h-.74l-4.08-6.8V20.9H67.13V9.63h1.32l4.7,7.93L77.8,9.63h1.32l0,11.28Z"/><path class="cls-1" d="M82.32,10.43a1,1,0,0,1-.3-.71,1,1,0,0,1,.3-.72,1,1,0,0,1,.75-.3,1,1,0,0,1,.75.28.93.93,0,0,1,.3.7,1,1,0,0,1-.3.73,1,1,0,0,1-.75.3A1,1,0,0,1,82.32,10.43Zm0,1.93h1.55V20.9H82.29Z"/><path class="cls-1" d="M92.23,20.9l-2.46-3.27-2.5,3.27H85.55l3.37-4.37-3.21-4.17h1.72l2.35,3.08,2.34-3.08h1.69l-3.22,4.17L94,20.9Z"/><path class="cls-1" d="M103.07,17.15H96.15a2.68,2.68,0,0,0,1,1.81,3.23,3.23,0,0,0,2.1.68,3.17,3.17,0,0,0,2.46-1l.85,1a3.74,3.74,0,0,1-1.44,1,5.44,5.44,0,0,1-4.33-.2,4,4,0,0,1-1.62-1.55,4.46,4.46,0,0,1-.57-2.26,4.53,4.53,0,0,1,.56-2.24,4,4,0,0,1,1.53-1.55,4.36,4.36,0,0,1,2.2-.56,4.27,4.27,0,0,1,2.18.56,3.91,3.91,0,0,1,1.5,1.55,4.73,4.73,0,0,1,.54,2.29A4.42,4.42,0,0,1,103.07,17.15Zm-6-2.88A2.73,2.73,0,0,0,96.15,16h5.48a2.75,2.75,0,0,0-.88-1.76,2.88,2.88,0,0,0-3.72,0Z"/><path class="cls-1" d="M107.92,12.67a4.33,4.33,0,0,1,1.92-.39v1.5l-.35,0a2.6,2.6,0,0,0-2,.75,3,3,0,0,0-.72,2.13V20.9h-1.55V12.37h1.48V13.8A2.64,2.64,0,0,1,107.92,12.67Z"/></svg>